<?xml version="1.0" encoding="utf-8"?>
<!-- Generator: Adobe Illustrator 16.0.0, SVG Export Plug-In . SVG Version: 6.00 Build 0)  -->
<!DOCTYPE svg PUBLIC "-//W3C//DTD SVG 1.1//EN" "http://www.w3.org/Graphics/SVG/1.1/DTD/svg11.dtd">
<svg version="1.1" id="Layer_1" xmlns="http://www.w3.org/2000/svg" xmlns:xlink="http://www.w3.org/1999/xlink" x="0px" y="0px"
	 width="950.348px" height="734.124px" viewBox="0 0 950.348 734.124" enable-background="new 0 0 950.348 734.124"
	 xml:space="preserve">
<g>
	<g>
		<g>
			<path fill="#0040E3" d="M850.169,508.793l0.829,2.073c-3.333-6.384-6.194-13.417-8.93-20.392
				c2.225,17.035,6.347,36.406,22.667,42.276c-5.086,4.066-0.688,19.478,0.857,19.064c2.504,2.404,4.841,4.939,7.039,7.584
				c-1.439-1.857-2.925-3.679-4.478-5.445c1.553,1.767,3.038,3.588,4.478,5.445c13.886,16.729,22.241,38.264,30.68,60.647
				c0.299,0.75,0.628,1.58,0.985,2.478l0.138,0.339c0.012,0.044,0.008,0.058,0.013,0.089l0.017,0.161
				c0.011,0.105,0.021,0.214,0.033,0.327c0.037,0.394,0.079,0.834,0.123,1.306c0.063,0.849,0.066,1.608-0.078,2.113
				c-1.314,0.051-2.37-0.007-3.092-0.204c-0.362-0.098-0.644-0.229-0.85-0.394l-0.073-0.063l-0.018-0.016
				c-0.005-0.002-0.001-0.007-0.014-0.007l-0.104,0.024l-0.412,0.095c-0.546,0.123-1.074,0.241-1.584,0.355
				c-1.019,0.224-1.963,0.42-2.821,0.585c-1.933,0.407-3.849,0.828-5.783,1.289c3.292-0.508,3.292-0.508,6.584-1.017
				c-7.272,4.25-13.826,8.209-20.335,11.559c1.5,0.459,1.994,1.225,5.263,1.451l-3.692,0.605c-2.343,3.58-9.731,5.952-12.83,8.176
				c0.299-1.565-2.512-0.906-4.98-0.292l1.244,0.547c-9.301,2.533-19.523,7.172-27.726,9.762c-1.135,0.387-2.152,0.181-2.819-0.096
				l-7.47,3.652c0.006-1.961-7.001,0.642-3.646-1.717c-5.146,4.052-11.508,4.782-16.356,8.816
				c-19.836,6.989-40.581,15.482-60.185,25.375l0.725,0.482c-6.819,3.6-12.004,9.208-21.158,11.02
				c-5.467,4.456-13.952,8.698-15.206,13.201c-7.053,2.941-9.313,5.754-16.075,9.095c2.438,1.196-6.14,4.515-2.181,4.744
				c5.556,0.949,5.084-1.296,9.764-0.596l-0.324-0.569c19.529-3.558,38.689-8.293,57.837-13.818
				c12.067-5.788,26.145-9.139,39.075-14.023c13.867-5.411,28.71-11.74,40.288-17.328c2.708-1.493,5.301-0.678,8.046-0.661
				c10.839-4.569,25.192-8.728,37.395-13.955c-0.238,0.073-0.478,0.118-0.636,0.145c6.56-2.551,12.178-2.373,18.577-4.88
				c-0.206-0.504,0.79-0.878,1.188-1.313c0.43,0.447,2.458-0.18,5.387-1.422c1.465-0.621,3.154-1.396,4.982-2.267
				c0.456-0.219,0.922-0.443,1.396-0.67c0.236-0.115,0.474-0.23,0.714-0.347c0.397-0.17,0.797-0.342,1.2-0.514
				c1.604-0.694,3.25-1.407,4.919-2.128c6.601-2.879,13.133-5.821,18.616-8.271c5.5-2.456,9.99-4.433,12.977-5.541
				c-0.853-1.596-1.308-2.605-1.268-2.901c-0.646-1.022-1.285-2.063-1.879-3.101c-2.047-4.729-3.869-9.542-5.714-14.611
				c-1.919-5.335-3.83-10.648-5.708-15.867l-0.377-1.03c-0.118-0.327-0.283-0.75-0.317-0.908l-0.378-1.292
				c-0.258-0.855-0.515-1.706-0.77-2.551c-0.521-1.686-1.058-3.337-1.626-4.943c-1.138-3.211-2.397-6.235-3.887-8.966
				c-2.277-1.881-4.575-4.131-6.801-5.562c-0.007-2.455-2.085-1.888-3.009-4.391c1.547-8.297-2.123-10.869-2.181-6.956
				c-3.092-4.646-5.173-9.817-7.529-14.138c-1.354-1.875-2.718-3.728-4.14-5.589c-1.255-1.557-1.066-2.87-0.427-4.291
				c-2.883-4.15-1.1-3.394-2.982-8.313c1.025-1.93-8.414-10.495-8.593-12.063l0.617,0.648c-2.432-5.562-1.152-10.705-3.665-16.074
				c-6.195-15.311-15.419-30.807-21.693-44.725c-1.735,0.699,1.874,2.825-0.256,4.088c-3.733-8.191-5.719-17.341-9.5-25.602
				c-0.284-1.688-0.34-3.9-0.144-4.833c-0.675-2.906-1.563-1.133-2.297-3.141l1.378-1.01c-2.623-2.159-0.359-4.894-2.29-7.197
				c-0.676,0.165-1.233-0.75-1.649-1.701c1.573-0.846-1.542-2.805-0.015-3.4l-0.134,0.033c-0.254-0.573-0.557-0.92-0.624-1.742
				c-1.094-0.782-10.457-8.562-11.676-9.302l0.012-0.634c-0.794-1.467-2.299-1.512-2.15-0.498l-0.831-1.883l0.216,0.158
				l-0.824-1.874c-0.028-0.407,0.525-1.161,1.487-0.992c-1.075-0.757-1.959-1.77-2.192-2.949c0.453,3.375,0.85,7.651,0.742,11.471
				c-1.168-0.964-1.436-3.626-2.282-4.881c0.255-2.13-0.496-5.875-1.051-8.803c-0.374-0.518-2.35-0.015-2.204-1.686
				c0.92-1.24-0.767-1.422-0.408-2.93c1.267,0.893,1.568,2.235,2.125,3.505c1.345-0.938-0.521-3.505-0.6-4.689
				c-0.687-0.23-1.407-2.856-2.561-4.156c1.721-0.042,0.285-1.657,0.589-2.922c-0.338-1.096-1.223-1.463-1.51-0.806
				c-1.683,0.432,1.107,4.482-1.191,3.868c0.549-0.739-0.697-2.595-1.296-3.628c-0.835,0.401-0.265,1.043-1.402,0.748
				c-0.412-1.279-2.037-2.04-1.519-3.15c0.336,0.11,0.439,0.67,0.591,1.028c-0.688-1.587,9.595,5.675,8.112,3.915
				c-0.476,0.887-9.313-6.347-8.85-5.292c0.062,1.146-1.833,0.073-1.635,1.192l1.544,0.582c0.357,1.487-0.818,2.758-1.622,2.574
				c-0.987-2.298,8.824,3.517,7.032,2.026l-0.005,0.973c-0.943-0.541-2.492-2.47-2.038-3.738c-0.82,0.401-1.654-0.544-2.402-1.3
				l-0.022-0.39c-0.882-0.728-1.34-2.13-2.118-0.982c2.871,5.414-10.122,0.557-7.941,6.101c0.695-3.131,2.227-0.178,3.605,2.052
				c-0.501,0.533-0.885,2.023-0.514,3.938c0.869,1.383,1.09,0.526,1.687,0.573c-0.004,1.01,0.427,2.722-0.626,2.996
				c1.7,0.567,0.183,2.173,1.253,3.338c1.123,0.936,0.451-0.327,1.422,0.25c0.78,1.858,1.879,4.458,2.375,5.999
				c-0.614,0.999-1.353,3.476-3.35,2.94c-1.173-2.821,2.774-0.088,1.057-2.776c-1.428,2.241-1.813-2.231-3.615-1.976
				c-0.468,1.364,0.439,3.201,1.46,4.605l0.116-0.442c0.942,1.216,2.719,3.705,2.358,5.712c-0.886,0.013-1.106,0.92-1.777,0.016
				l0.794,1.926c0.345,0.123,0.698,0.25,0.594-0.369c0.993,0.601,1.122,1.632,1.037,2.519c-0.655,0.58,8.126,8.297,7.502,8.234
				c0.693,1.328-0.282,2.22,1.14,3.141c0.685-0.169-8.994-11.508-7.863-9.859c-0.259,1.559,11.375,13.286,10.356,14.837
				c0.552,0.964,1.311,2.082,1.962,1.465c0.466,1.863-1.716,0.229-1.838,1.784c0.134-0.034,0.335-0.29,0.498,0.105l-0.397,1.633
				c2.495,2.008,2.854,6.603,5.792,8.541c-1.227-0.374-3.135-0.545-4.766-1.923l0.25-0.509c-0.36-0.132-1.349-1.443-2.095-1.019
				c0.322,1.922,1.176,3.279,2.808,4.656c-0.045,0.427-0.063,0.909-0.149,1.268c0.098-0.058,0.168-0.126,0.287-0.177
				c-0.19,0.812-0.298,0.79-0.703,0.731c-0.068,0-0.148-0.002-0.235-0.034c-1.724,2.169,4.697,5.833,5.054,9.458
				c0.767,0.738,0.424-0.107,1.413,0.795c0.665,3.556,1.051,6.045,2.157,9.558c1.488,0.555,1.915,0.443,2.299-1.318l0.913,2.614
				c-3.697-0.943-0.167,5.819-3.974,4.644c-0.232,1.014,0.383,2.545,1.489,3.713c0.719-0.187,1.869-0.492,2.731,1.24
				c0.344,2.839,0.37,2.109,0.538,4.518c-0.606,0.894-1.306,0.329-1.939,0.75c2.621,2.536-0.493,3.604,1.119,6.424
				c1.158,1.694,3.054,5.233,4.577,4.582C852.577,507.893,851.494,508.434,850.169,508.793z"/>
		</g>
	</g>
</g>
<g>
	<g>
		<g>
			<path fill="#0040E3" d="M670.645,531.955l-4.261-1.846c14.022,5.361,28.632,11.35,43.051,17.264
				c-15.003-8.357-31.301-17.295-47.373-24.072c-8.015-3.448-16.026-6.24-23.779-8.254c-3.882-0.994-7.728-1.725-11.487-2.224
				c-3.754-0.51-7.442-0.738-11.043-0.642c-0.211-6.85-28.89-22.81-30.104-21.727c-3.331-0.877-6.676-1.789-10.001-2.796
				c-3.318-1.021-6.639-2.096-9.961-3.219c4.543,1.606,9.057,3.208,13.619,4.606c-4.562-1.397-9.075-3-13.619-4.606
				c-20.982-7.136-41.965-16.716-62.826-27.936c-20.846-11.256-41.573-24.13-62.204-37.794c-2.878-1.865-6.374-4.129-10.333-6.694
				c-3.935-2.598-8.331-5.499-13.037-8.605c-4.729-3.066-9.685-6.456-14.798-9.943c-2.558-1.74-5.155-3.507-7.772-5.287
				c-2.617-1.779-5.199-3.651-7.811-5.481c-2.604-1.841-5.208-3.682-7.795-5.512c-1.292-0.915-2.58-1.828-3.861-2.735
				c-1.264-0.931-2.522-1.857-3.771-2.777c-4.982-3.69-9.822-7.274-14.375-10.646c-4.465-3.481-8.647-6.742-12.404-9.67
				c-1.864-1.481-3.622-2.879-5.256-4.178c-1.598-1.345-3.075-2.589-4.414-3.716c-3.11-2.61-6.211-5.188-9.38-7.777
				c5.093,4.51,5.093,4.51,10.187,9.02c-14.72-8.765-28.01-16.897-40.392-25.442c1.5,2.358,1.254,3.398,5.433,8.254
				c0,0-0.355-0.324-0.889-0.81c-0.533-0.486-1.248-1.129-1.941-1.798c-1.397-1.325-2.794-2.65-2.794-2.65
				c-3.542-1.165-8.44-4.311-13.279-7.655c-2.437-1.652-4.784-3.442-6.965-5.03c-2.179-1.591-4.17-3.005-5.803-4.016
				c2.143-0.008-2.254-4.072-6.15-7.626l1.001,2.041c-1.882-1.652-3.769-3.374-5.691-5.105c-1.938-1.712-3.902-3.447-5.879-5.193
				c-3.96-3.482-8.084-6.885-11.996-10.423c-3.948-3.5-7.847-6.956-11.595-10.278c-1.884-1.652-3.675-3.33-5.4-4.98
				c-1.72-1.656-3.391-3.265-5.002-4.817c-1.802-1.727-2.789-3.395-3.271-4.519c0,0-0.819-0.694-2.048-1.735
				c-1.219-1.052-2.894-2.406-4.485-3.844c-3.212-2.85-6.424-5.7-6.424-5.7c2.239-0.381-8.859-11.221-2.272-6.246
				c-2.633-1.898-5.183-3.903-7.538-6.093c-2.367-2.179-4.654-4.432-6.931-6.67c-4.547-4.484-9.106-8.853-13.997-12.671
				c-3.705-4.021-7.44-8.075-11.199-12.155c-3.69-4.142-7.404-8.31-11.137-12.499c-1.875-2.089-3.754-4.183-5.638-6.281
				c-1.837-2.138-3.677-4.281-5.521-6.427c-3.706-4.282-7.425-8.58-11.152-12.886c-7.228-8.794-14.775-17.423-21.874-26.39
				l-5.424-6.65c-1.811-2.214-3.651-4.406-5.382-6.674c-3.542-4.487-7.075-8.965-10.596-13.427l0.062,1.301
				c-1.257-1.55-2.531-3.054-3.814-4.535c-1.239-1.511-2.49-2.996-3.75-4.477c-2.519-2.96-5.07-5.901-7.619-8.979
				c-5.188-6.096-9.954-13.012-14.528-21.593c-4.762-5.223-9.646-12.11-14.306-17.949c-2.318-2.926-4.548-5.61-6.583-7.75
				c-1.969-2.176-3.747-3.806-5.252-4.572c-4.033-6.99-7.238-11.682-10.483-16.324c-3.116-4.709-6.242-9.384-10.227-16.279
				c0.051,2.256-2.184-0.948-4.168-3.768C0.929,0.563-0.686-1.839,0.295,1.971c2.299,10.657,4.603,10.177,6.673,19.206l0.455-0.529
				c16.261,38.864,36.79,76.031,60.453,111.694c17.616,22.498,35.36,47.864,54.869,70.229c21.063,23.986,45.586,48.297,66.157,66.23
				c5.014,4.168,7.316,8.519,10.691,13.026c2.322,2.11,4.722,4.292,7.187,6.532c2.485,2.215,5.035,4.487,7.634,6.803
				c5.182,4.648,10.485,9.554,16.052,14.311c10.983,9.685,22.55,19.307,33.776,27.885c-0.409-0.339-0.788-0.689-1.035-0.921
				c5.935,4.593,10.775,9.035,15.592,13.455c4.877,4.338,9.756,8.619,15.645,12.987c0.273-0.476,2.088,0.888,3.132,1.338
				c0.266,1.742,18.242,13.782,36.934,25.186c4.656,2.876,9.415,5.63,13.867,8.309c4.462,2.665,8.657,5.199,12.386,7.342
				c7.42,4.343,12.678,7.577,13.551,8.594c1.322,0.748,2.71,1.494,4.095,2.303c3.164,2.194,6.31,4.448,9.439,6.74
				c3.123,2.305,6.249,4.613,9.368,6.916c3.12,2.31,6.232,4.614,9.328,6.905c3.089,2.306,6.156,4.615,9.25,6.813
				c3.092,2.208,6.156,4.396,9.182,6.557c3.036,2.149,6.051,4.246,9.079,6.202c6.046,3.931,11.943,7.662,17.793,10.778
				c5.619,1.75,11.786,3.971,16.662,5.131c3.583,3.197,5.394,1.743,10.216,4.667c10.188,11.305,18.72,13.169,12.965,8.2
				c5.387,2.4,10.644,5.063,15.734,7.693c5.121,2.569,10.066,5.122,14.778,7.382c4.488,1.865,9.021,3.556,13.601,5.306
				c3.918,1.423,5.672,3.112,7.036,5.113c9.92,3.884,6.551,3.669,16.427,8.871c1.695,2.798,26.605,9.004,29.28,10.681l-1.77-0.49
				c11.636,5.488,18.17,11.983,29.74,17.02c15.921,7.336,32.969,14.094,49.823,20.428c16.87,6.297,33.567,12.108,48.801,17.711
				c0.907-1.64-6.897-1.962-6.437-4.424c17.932,6.616,35.524,14.889,53.898,20.951c3.18,1.511,6.976,3.687,8.328,4.713
				c5.72,2.454,3.755,0.203,8.02,1.742l0.101,1.79c6.729,0.603,8.76,4.532,14.948,5.633c0.504-0.554,2.719-0.01,4.837,0.643
				c-0.382,1.748,6.606,1.748,5.853,3.23l0.099-0.112c1.28,0.393,2.224,0.549,3.721,1.276c1.314,0.023,8.027,0.486,14.757,0.831
				c6.724,0.372,13.457,0.646,14.796,0.602l1.086,0.586c3.453,0.847,5.26-0.089,3.326-0.899l4.223,1.167l-0.521-0.004l4.2,1.162
				c0.741,0.349,1.425,1.375,0.033,1.837c2.551-0.012,5.328,0.315,7.654,1.213c-6.423-2.699-14.322-6.264-20.79-9.83
				c2.997,0.156,7.911,2.391,11.058,2.973c3.404,2.083,10.785,4.934,16.556,7.124c1.334,0.206,2.682-1.503,5.456,0.03
				c1.143,1.675,3.367,0.726,5.62,2.261c-3.006,0.063-5.715-0.895-8.576-1.636c0.121,1.701,6.764,2.698,8.947,3.657
				c1.183-0.257,6.649,1.51,10.271,1.819c-1.866,1.196,2.634,1.587,4.567,2.841c2.35,0.685,4.02,0.375,3.151-0.361
				c1.097-1.491-9.28-2.975-5.595-4.021c0.699,0.988,5.419,1.691,7.956,2.122c0.214-0.901-1.578-1.039,0.226-1.575
				c2.771,0.766,5.949,0.25,7.454,1.5c-0.597,0.147-1.753-0.232-2.571-0.416c1.839,0.399-3.465,0.937-8.549,1.341
				c-5.095,0.41-10.035,0.715-7.626,0.96c-0.522-0.533,4.933-0.753,10.241-0.985c2.651-0.112,5.278-0.228,7.098-0.349
				c0.936-0.059,1.605-0.126,2.078-0.179c0.429-0.06,0.486-0.13,0.2-0.188c-2.36-0.894,2.015-1.331-0.424-2.105l-2.813,0.608
				c-3.107-0.955-4.063-2.804-2.838-3.207c2.616,0.59-1.426,1.411-5.54,2.038c-4.108,0.622-8.294,1.061-5.957,1.083l-1.724-0.823
				c2.021-0.171,7.193,0.383,8.969,1.733c0.199-0.891,2.827-0.681,5.037-0.587l0.729,0.301c1.165-0.012,2.497,0.185,3.433,0.199
				c0.908,0.012,1.46-0.142,0.763-0.882c-6.6-1.178-3.946-3.048-1.337-4.996c2.648-1.957,5.264-3.989-0.864-5.43
				c4.813,2.98-2.156,1.722-7.618,0.818c-0.385-0.789-2.592-2.265-6.358-3.618c-3.391-0.573-2.136,0.294-2.885,0.656
				c-1.768-0.847-5.237-2.021-4.538-2.953c-2.892,0.658-3.992-1.73-7.213-2.023c-2.886-0.063,0.063,0.578-2.031,0.723
				c-4.104-1.098-9.849-2.646-13.066-3.697c-1.034-1.278-4.466-3.937-1.288-4.753c6.179,1.729-2.978,1.868,3.591,3.129
				c-2.257-2.888,5.891,0.79,7.474-0.625c-1.833-1.483-6.013-2.497-9.575-3.083l0.629,0.464c-3.154-0.447-9.434-1.547-12.462-3.568
				c0.981-0.576-0.322-1.525,1.984-1.147l-4.19-1.224c-0.6,0.106-1.217,0.214-0.043,0.708c-2.148,0.082-4.057-0.771-5.471-1.626
				c-0.126-0.457-5.96-1.079-11.671-1.654c-5.709-0.572-11.286-1.133-10.877-1.287c-3.047-0.809-3.436-2.241-6.622-2.255
				c-0.254,0.302,7.197,1.633,14.194,2.744c7.005,1.086,13.552,1.97,11.507,1.568c-1.176-0.804-10.061-2.045-18.827-3.482
				c-8.766-1.428-17.424-2.993-18.137-4.05c-2.257-0.595-5.011-1.216-4.728-0.238c-3.669-1.509,1.596-1.239-0.873-2.8
				c-0.099,0.112,0.1,0.477-0.752,0.195l-2.279-1.798c-6.245-0.488-14.337-4.722-20.968-4.971c2.05-0.339,4.552-1.26,8.732-0.852
				l0.558,0.64c0.639-0.083,3.969,0.612,4.126-0.236c-3.579-1.666-6.819-2.502-10.997-2.926c-0.657-0.447-1.435-0.931-1.93-1.334
				c-0.019,0.112,0.014,0.221-0.04,0.339c-1.125-0.909-0.963-0.949-0.395-1.124c0.079-0.04,0.175-0.083,0.33-0.101
				c-1.591-3.098-15.11-3.103-21.497-6.565c-2.109-0.323-0.321,0.344-2.958-0.022c-3.308-1.619-6.093-3.005-8.933-4.354
				c-2.832-1.373-5.715-2.716-9.227-4.22c-2.654,0.238-2.978,0.584-0.558,2.605l-5.338-2.194c5.881-1.003-9.241-6.151-2.847-6.966
				c-1.367-1.181-4.563-2.449-7.754-3.076c-0.546,0.571-1.419,1.522-5.229,0.146c-4.972-2.828-3.83-2.042-7.896-4.503
				c-0.715-1.262,1.021-1.029,1.094-1.805c-7.173-1.31-5.189-4.059-11.586-6.265c-4.069-1.227-11.953-4.049-12.726-2.604
				C669.196,534.135,669.633,533.005,670.645,531.955z"/>
		</g>
	</g>
</g>
</svg>
