<?xml version="1.0" encoding="utf-8"?>
<!-- Generator: Adobe Illustrator 16.0.0, SVG Export Plug-In . SVG Version: 6.00 Build 0)  -->
<!DOCTYPE svg PUBLIC "-//W3C//DTD SVG 1.1//EN" "http://www.w3.org/Graphics/SVG/1.1/DTD/svg11.dtd">
<svg version="1.1" id="Layer_1" xmlns="http://www.w3.org/2000/svg" xmlns:xlink="http://www.w3.org/1999/xlink" x="0px" y="0px"
	 width="662.566px" height="176.694px" viewBox="0 0 662.566 176.694" enable-background="new 0 0 662.566 176.694"
	 xml:space="preserve">
<g>
	<path d="M34.483,90.347h74.954c-2.7-20.098-15.288-32.684-35.979-32.684C51.279,57.664,38.378,72.05,34.483,90.347 M143.617,116.12
		h-0.295H34.782c4.197,17.697,17.388,31.197,41.372,31.197c13.797,0,23.688-4.497,28.784-13.191h36.884
		c-8.096,26.082-34.18,42.568-66.563,42.568C29.987,176.694,0,144.625,0,102.643c0-42.288,29.987-74.355,75.259-74.355
		c39.275,0,68.958,29.376,69.263,71.957C144.522,105.336,144.522,110.736,143.617,116.12"/>
	<path d="M385.803,90.347h74.948c-2.692-20.098-15.282-32.684-35.972-32.684C402.593,57.664,389.698,72.05,385.803,90.347
		 M494.934,116.12h-0.293H386.1c4.197,17.697,17.389,31.197,41.371,31.197c13.802,0,23.691-4.497,28.787-13.191h36.886
		c-8.101,26.082-34.183,42.568-66.567,42.568c-45.275,0-75.252-32.068-75.252-74.051c0-42.288,29.977-74.355,75.252-74.355
		c39.277,0,68.959,29.376,69.26,71.957C495.836,105.336,495.836,110.736,494.934,116.12"/>
	<path d="M249.723,146.715c-14.692,0-28.184-5.4-38.076-19.787V77.748c9.892-14.083,23.384-19.482,38.076-19.482
		c24.587,0,41.974,20.682,41.974,44.069C291.697,126.018,274.311,146.715,249.723,146.715 M254.822,28.288
		c-17.097,0-31.787,4.786-43.175,13.188V0h-34.78v173.399h34.78v-9.896c11.388,8.4,26.078,13.191,43.175,13.191
		c39.57,0,71.355-32.979,71.355-74.359C326.178,61.266,294.393,28.288,254.822,28.288"/>
</g>
<polygon points="532.829,26.834 532.829,168.15 566.615,168.15 566.615,88.184 636.508,168.15 662.566,168.15 662.566,148.149 
	628.99,108.938 558.682,26.834 "/>
<rect x="628.994" y="26.834" fill="#0040E3" width="33.572" height="33.798"/>
</svg>
